<svg width="122" height="45" viewBox="0 0 122 45" fill="none" xmlns="http://www.w3.org/2000/svg">
<path d="M64.7291 22.4442C64.6977 21.6008 64.5501 20.8594 64.2867 20.2189C64.0225 19.5793 63.6732 19.0479 63.2389 18.6263C62.8041 18.2044 62.3078 17.8927 61.7491 17.6892C61.1903 17.4865 60.6157 17.3848 60.0264 17.3848C58.8158 17.3848 57.768 17.8295 56.8833 18.7197C55.9986 19.6098 55.4938 20.8513 55.3701 22.4442H64.7291ZM55.1839 26.2854C55.277 28.0352 55.7813 29.4246 56.6971 30.4553C57.6124 31.4858 58.8158 32.001 60.3056 32.001C61.2987 32.001 62.1753 31.7749 62.9363 31.322C63.6966 30.8696 64.1856 30.237 64.4031 29.4246H70.6424C69.928 31.7983 68.6868 33.6255 66.9174 34.9057C65.1481 36.1866 63.0367 36.8265 60.5851 36.8265C52.9489 36.8265 49.1309 32.6415 49.1309 24.2715C49.1309 22.4912 49.3787 20.8829 49.8758 19.446C50.3721 18.0096 51.0936 16.7756 52.0408 15.7449C52.9875 14.7141 54.1434 13.9258 55.5098 13.3789C56.8752 12.8329 58.4432 12.5593 60.2125 12.5593C63.7513 12.5593 66.4284 13.6999 68.2445 15.9791C70.0605 18.2592 70.9683 21.6947 70.9683 26.2854H55.1839Z" fill="black"/>
<path d="M86.9856 24.9268C86.6749 25.2394 86.2248 25.489 85.6355 25.6764C85.0456 25.8639 84.192 26.0674 83.0745 26.2852C81.3357 26.6296 80.1412 27.0666 79.4893 27.5975C78.8375 28.1286 78.5116 28.8935 78.5116 29.8924C78.5116 31.6109 79.4893 32.4691 81.4449 32.4691C82.2204 32.4691 82.942 32.3369 83.6099 32.0713C84.2768 31.806 84.8511 31.4468 85.3326 30.9939C85.8136 30.5415 86.2012 30.0098 86.4968 29.4007C86.7914 28.7918 86.9389 28.144 86.9389 27.4566L86.9856 24.9268ZM87.4046 36.2172C87.2184 35.6242 87.094 34.9368 87.0323 34.156C86.3179 34.9684 85.3712 35.6161 84.192 36.1001C83.012 36.5837 81.6463 36.8263 80.0945 36.8263C77.456 36.8263 75.5235 36.2407 74.2976 35.0696C73.0709 33.8982 72.4585 32.3757 72.4585 30.5018C72.4585 28.8466 72.7219 27.5268 73.2501 26.543C73.7775 25.5595 74.5071 24.7862 75.4385 24.224C76.3696 23.6618 77.4793 23.2484 78.7677 22.9828C80.0553 22.7175 81.4602 22.4754 82.9811 22.2562C84.5019 22.0384 85.5263 21.7494 86.0545 21.3898C86.5819 21.0312 86.8458 20.4455 86.8458 19.6331C86.8458 18.8833 86.4968 18.2979 85.7983 17.8763C85.1 17.4545 84.1606 17.2437 82.9811 17.2437C81.5844 17.2437 80.5833 17.5562 79.9781 18.1808C79.3732 18.8059 78.9925 19.6331 78.8375 20.6638H73.2034C73.234 19.4774 73.4282 18.3843 73.7855 17.3846C74.142 16.3851 74.7166 15.5266 75.5082 14.8079C76.2998 14.0897 77.3315 13.5356 78.6044 13.1448C79.877 12.7545 81.4288 12.5591 83.2607 12.5591C85.0606 12.5591 86.5899 12.7626 87.8469 13.168C89.1042 13.5744 90.1126 14.1598 90.8736 14.9247C91.6338 15.6904 92.1845 16.6429 92.5266 17.7824C92.8678 18.923 93.0386 20.2112 93.0386 21.6476V36.2172H87.4046Z" fill="black"/>
<path d="M108.171 12.5596C107.549 12.5596 106.943 12.592 106.355 12.654C105.765 12.7161 105.183 12.8646 104.609 13.0967C104.032 13.3315 103.474 13.6688 102.932 14.1061C102.388 14.5433 101.867 15.1506 101.371 15.9333V13.1668H95.6924V36.2161H101.744V24.2245C101.744 20.508 103.592 18.6487 107.286 18.6487C107.592 18.6487 107.895 18.6619 108.201 18.6916V12.5596H108.171Z" fill="black"/>
<path d="M122 7V36.2164H115.946V18.7864H110.854V12.3491C111.657 12.3032 112.36 12.2063 112.966 12.0606C113.867 11.8417 114.605 11.5043 115.179 11.0512C115.753 10.6004 116.187 10.0363 116.483 9.3643C116.777 8.69468 116.971 7.90658 117.065 7H122Z" fill="black"/>
<mask id="mask0" mask-type="alpha" maskUnits="userSpaceOnUse" x="0" y="0" width="39" height="45">
<path d="M17.5703 0.0448029C16.9734 0.0817788 16.3798 0.172734 15.7996 0.320908C15.2698 0.456126 14.7451 0.613746 14.2169 0.756522C9.29746 2.03961 5.54062 4.89701 2.87287 9.25235C0.463184 13.1853 -0.355247 17.4478 0.136723 21.9942C0.564046 25.9425 2.32913 29.2917 4.84022 32.2751C7.0734 34.9285 9.7052 37.1249 12.5908 39.0323C15.5839 41.0106 18.7713 42.5585 22.1893 43.6305C23.0332 43.895 23.9002 44.0553 24.7661 44.2213C24.9512 44.2567 25.1527 44.2907 25.2803 44.1004C25.3852 43.9444 25.3439 43.7833 25.2742 43.6348C25.1993 43.4758 25.0942 43.3331 24.9823 43.1973C24.4083 42.5012 23.989 41.7161 23.636 40.8897C23.2202 39.9156 23.3693 38.8414 24.7409 38.483C28.318 37.5478 31.2819 35.563 33.7063 32.7876C37.1952 28.7934 38.8256 24.0945 38.5493 18.7983C38.2564 13.1864 35.9918 8.45831 31.7653 4.76153C28.0752 1.53437 23.787 0 19.0038 0C18.5306 0 18.0531 0.0151142 17.5703 0.0448029Z" fill="white"/>
</mask>
<g mask="url(#mask0)">
<path d="M39.9204 -1.34961V18.4784L34.3938 18.4364C34.3845 18.4364 34.3751 18.4364 34.3657 18.4363L34.3375 18.4362C33.0309 18.4362 31.7481 18.7919 30.6247 19.4666L29.2762 20.2771L27.8708 18.6842C27.7576 18.5565 27.631 18.4405 27.4934 18.339C26.9732 17.9549 26.3359 17.7981 25.6988 17.8969C25.0614 17.9957 24.5002 18.3382 24.1188 18.8615L23.2373 20.0707L22.0479 15.701C21.8392 14.9332 21.2308 14.3448 20.4588 14.1659C19.9003 14.0374 19.3252 14.134 18.8391 14.4403C18.353 14.7464 18.015 15.2247 17.8865 15.7866L16.8138 20.4806L16.1534 17.4994C15.9632 16.643 15.3264 15.9542 14.4918 15.7024C13.8735 15.5153 13.2209 15.5817 12.6532 15.8894C12.0854 16.1968 11.6704 16.708 11.4847 17.3296L10.6977 19.9657L10.1754 18.3763C9.84735 17.3795 8.92645 16.7102 7.88322 16.7102H6.43789C5.69725 16.7102 5.09664 17.3142 5.09664 18.0597C5.09664 18.8051 5.69725 19.4092 6.43789 19.4092H7.68928L9.21884 24.0627C9.49782 24.9094 10.4101 25.3715 11.253 25.0908C11.7506 24.925 12.1377 24.524 12.2882 24.0193L13.7584 19.0953L15.2266 25.7212C15.3202 26.1434 15.5713 26.5037 15.9345 26.7358C16.1955 26.9028 16.4922 26.9887 16.7945 26.9887C16.912 26.9887 17.0308 26.9757 17.1483 26.9493C17.7487 26.8143 18.2267 26.3374 18.3662 25.7318L20.0234 18.481L20.9438 21.8612C21.0948 22.4174 21.4527 22.8811 21.9505 23.1669C22.4484 23.4522 23.027 23.5254 23.5799 23.3737C24.045 23.2457 24.4584 22.9594 24.7438 22.568L26.0856 20.7271L27.2702 22.0693C28.1251 23.0368 29.5463 23.2576 30.6512 22.5942L31.9997 21.784C32.717 21.353 33.5242 21.1295 34.3732 21.1354L39.9204 21.1774V45.5982H-1.34131V-1.34961H39.9204Z" fill="#00BF69"/>
</g>
</svg>
